<?xml version="1.0" ?>
<!DOCTYPE svg  PUBLIC '-//W3C//DTD SVG 1.1//EN'  'http://www.w3.org/Graphics/SVG/1.1/DTD/svg11.dtd'>
<!-- Uploaded to: SVG Repo, www.svgrepo.com, Generator: SVG Repo Mixer Tools -->
<svg fill="#000000" width="800px" height="800px" viewBox="0 0 64 64" enable-background="new 0 0 64 64" version="1.1" xml:space="preserve" xmlns="http://www.w3.org/2000/svg" xmlns:xlink="http://www.w3.org/1999/xlink">
<g id="Layer_1"/>
<g id="Layer_2"/>
<g id="Layer_4"/>
<g id="Layer_5">
<g>
<path d="M32,49.989c-3.362,0-7.343-1.592-9.416-2.542C22.228,47.285,22,46.93,22,46.539V35c0-0.552,0.448-1,1-1h18    c0.552,0,1,0.448,1,1v11.655c0,0.38-0.216,0.728-0.557,0.896C39.193,48.664,35.729,49.989,32,49.989z M24,45.89    c1.81,0.788,5.241,2.1,8,2.1c3.165,0,6.196-1.131,8-1.965L40,36l-16,0V45.89z"/>
</g>
<path d="M42,30H24v-9.978c0-4.453,3.589-8.076,8-8.076s8,3.623,8,8.076V25c0,0.552,0.448,1,1,1s1-0.448,1-1v-4.978   c0-5.556-4.486-10.076-10-10.076s-10,4.52-10,10.076V30c-2.935,0-4,2.392-4,4v15c0,0.359,0.193,0.691,0.505,0.869   C18.8,50.037,25.806,53.989,32,53.989s13.2-3.952,13.495-4.121C45.807,49.691,46,49.359,46,49V34C46,31.066,43.608,30,42,30z    M44,48.403c-1.68,0.879-7.237,3.586-12,3.586s-10.32-2.707-12-3.586V34c0-0.334,0.096-2,2-2h20c0.334,0,2,0.097,2,2V48.403z"/>
<path d="M34,42c0-1.104-0.896-2-2-2s-2,0.896-2,2c0,0.738,0.405,1.376,1,1.723V46c0,0.552,0.448,1,1,1s1-0.448,1-1v-2.277   C33.595,43.376,34,42.738,34,42z"/>
<g>
<line x1="29" x2="35" y1="38" y2="38"/>
<path d="M35,39h-6c-0.552,0-1-0.448-1-1s0.448-1,1-1h6c0.552,0,1,0.448,1,1S35.552,39,35,39z"/>
</g>
</g>
</svg>